<?xml version="1.0" standalone="no"?>
<!DOCTYPE svg PUBLIC "-//W3C//DTD SVG 20010904//EN"
 "http://www.w3.org/TR/2001/REC-SVG-20010904/DTD/svg10.dtd">
<svg version="1.0" xmlns="http://www.w3.org/2000/svg"
 width="512.000000pt" height="512.000000pt" viewBox="0 0 512.000000 512.000000"
 preserveAspectRatio="xMidYMid meet">

<g transform="translate(0.000000,512.000000) scale(0.100000,-0.100000)"
fill="#000000" stroke="none">
<path d="M915 5102 c-55 -26 -79 -57 -155 -200 l-64 -121 -131 -70 c-171 -92
-205 -130 -205 -230 0 -104 37 -147 207 -237 67 -36 125 -69 128 -74 4 -6 -27
-46 -67 -91 -115 -127 -218 -269 -218 -302 0 -55 71 -96 112 -64 9 6 50 58 92
114 368 492 938 822 1581 915 137 20 523 17 663 -6 261 -41 477 -108 707 -221
240 -117 437 -257 629 -448 l98 -98 -30 -32 c-17 -18 -64 -95 -105 -172 l-75
-139 -141 -76 c-152 -82 -183 -106 -212 -162 -36 -70 -18 -193 35 -237 9 -8
16 -17 16 -22 0 -5 -80 -9 -178 -9 -202 0 -249 -9 -332 -65 l-51 -35 -132 15
c-227 25 -513 37 -712 31 -175 -6 -469 -29 -540 -42 -24 -4 -42 2 -84 30 -95
64 -120 67 -483 64 l-323 -3 -58 -27 c-110 -52 -184 -136 -218 -250 -26 -84
-22 -153 15 -300 40 -158 102 -255 211 -334 105 -74 183 -97 351 -102 176 -5
262 8 357 56 92 45 192 143 236 230 63 124 98 346 70 445 -6 22 -8 41 -5 45
31 30 768 48 1021 24 182 -18 198 -21 190 -41 -4 -9 -12 -45 -17 -81 -10 -57
-8 -81 15 -190 17 -81 39 -150 61 -196 66 -133 207 -243 357 -279 83 -19 301
-20 392 0 101 21 196 76 271 155 72 77 107 142 135 249 l18 75 57 -3 c66 -3
131 24 170 69 13 16 56 90 95 165 69 130 110 180 131 159 5 -5 18 -60 29 -123
127 -703 -79 -1410 -563 -1941 -43 -47 -83 -95 -88 -107 -17 -35 -1 -72 36
-90 32 -15 36 -15 67 3 41 24 201 208 291 335 227 318 374 700 429 1109 16
123 16 448 0 570 -12 85 -40 236 -56 303 -6 21 0 28 48 55 106 60 148 156 115
264 -19 66 -63 103 -218 186 l-145 77 -78 145 c-87 162 -102 181 -165 212 -25
11 -61 40 -80 62 -20 23 -84 89 -143 148 -372 369 -861 611 -1399 693 -148 22
-448 30 -600 16 -237 -23 -518 -90 -724 -174 l-89 -36 -83 45 -84 46 -59 111
c-78 147 -103 181 -148 203 -56 26 -130 29 -178 6z m117 -149 c9 -10 43 -70
77 -133 68 -126 88 -151 143 -183 21 -11 38 -24 38 -28 0 -4 -26 -22 -57 -39
-90 -51 -250 -162 -337 -234 -43 -36 -81 -66 -84 -66 -3 0 -15 9 -26 19 -12
11 -73 47 -136 81 -141 76 -142 76 -138 113 3 28 14 37 125 96 67 36 135 76
150 87 17 13 58 76 101 157 40 75 78 138 85 140 24 10 44 7 59 -10z m3420
-1115 c9 -7 48 -74 88 -148 39 -74 86 -149 103 -167 18 -17 95 -65 172 -106
106 -57 142 -81 149 -101 18 -47 -3 -67 -150 -145 -77 -40 -153 -87 -171 -104
-17 -18 -64 -93 -103 -167 -40 -74 -79 -141 -88 -147 -23 -18 -66 -16 -84 5
-9 9 -48 78 -88 152 -39 74 -81 145 -92 156 -11 12 -81 55 -156 94 -75 40
-145 80 -154 88 -10 9 -18 29 -18 47 0 18 8 38 18 47 9 8 79 48 155 88 76 40
148 86 161 101 13 15 54 85 91 156 37 70 74 136 83 146 18 20 61 22 84 5z
m-2822 -889 c58 -26 87 -53 116 -111 30 -59 31 -129 4 -250 -30 -137 -79 -213
-178 -277 -77 -49 -154 -64 -317 -59 -135 3 -143 4 -207 36 -79 39 -149 106
-183 176 -32 67 -68 238 -61 294 7 54 35 109 78 149 63 61 73 62 403 62 281 1
303 -1 345 -20z m2427 6 c34 -13 45 -28 96 -124 31 -60 57 -121 57 -137 0 -51
-40 -196 -67 -246 -37 -68 -120 -142 -191 -169 -46 -18 -82 -23 -192 -27 -200
-6 -275 16 -372 106 -66 61 -101 134 -127 262 -24 113 -22 159 10 222 22 44
83 97 130 114 54 20 607 19 656 -1z"/>
<path d="M257 3518 c-39 -30 -138 -290 -188 -492 -50 -205 -63 -327 -63 -571
0 -248 15 -373 69 -590 75 -298 219 -600 401 -846 35 -48 64 -89 64 -92 0 -3
-44 -29 -97 -57 -54 -29 -110 -61 -126 -72 -43 -30 -71 -94 -71 -158 1 -98 37
-141 189 -221 55 -29 112 -61 127 -71 16 -11 53 -69 92 -141 35 -67 77 -134
93 -149 60 -57 145 -73 218 -39 57 26 80 56 154 193 37 67 73 125 81 130 11 7
37 -2 89 -31 337 -186 724 -292 1126 -308 426 -16 840 72 1224 262 157 78 383
221 400 254 17 32 13 66 -12 89 -37 35 -67 27 -168 -42 -383 -259 -793 -393
-1259 -412 -404 -17 -835 78 -1194 263 l-40 20 35 18 c44 22 87 62 106 100 24
45 21 132 -5 182 -25 48 -51 67 -205 150 l-109 58 -73 135 c-92 172 -119 195
-230 195 -100 0 -142 -29 -199 -137 -23 -43 -44 -78 -48 -78 -12 0 -117 150
-182 263 -353 608 -401 1344 -131 2001 55 136 58 153 27 189 -18 20 -71 23
-95 5z m665 -2405 c9 -10 41 -67 73 -126 32 -60 69 -122 82 -138 14 -16 80
-58 147 -94 68 -35 131 -74 141 -85 33 -36 9 -61 -128 -134 -68 -36 -137 -79
-153 -95 -16 -16 -53 -76 -83 -133 -72 -137 -87 -158 -116 -158 -28 0 -43 20
-114 153 -28 54 -61 112 -73 127 -13 17 -75 58 -155 101 -200 107 -200 117 3
224 67 36 133 78 147 94 13 16 50 78 82 138 67 125 80 143 110 143 12 0 29 -8
37 -17z"/>
<path d="M2153 2380 c-26 -11 -43 -40 -43 -75 0 -34 80 -112 159 -153 144 -77
309 -81 458 -11 66 32 168 117 178 150 16 49 -41 108 -89 93 -11 -4 -40 -24
-64 -46 -92 -84 -223 -117 -336 -84 -63 19 -119 51 -151 86 -20 22 -67 51 -82
49 -4 0 -18 -4 -30 -9z"/>
</g>
</svg>
