<?xml version="1.0" standalone="no"?>
<!DOCTYPE svg PUBLIC "-//W3C//DTD SVG 20010904//EN"
 "http://www.w3.org/TR/2001/REC-SVG-20010904/DTD/svg10.dtd">
<svg version="1.0" xmlns="http://www.w3.org/2000/svg"
 width="512.000000pt" height="512.000000pt" viewBox="0 0 512.000000 512.000000"
 preserveAspectRatio="xMidYMid meet">

<g transform="translate(0.000000,512.000000) scale(0.100000,-0.100000)"
fill="#000000" stroke="none">
<path d="M1686 5109 c-234 -34 -446 -146 -614 -324 -127 -134 -203 -273 -254
-463 -16 -61 -21 -109 -22 -232 0 -85 2 -178 7 -206 l7 -52 -37 -7 c-102 -19
-221 -117 -271 -223 -24 -51 -27 -69 -27 -163 0 -102 1 -107 38 -183 37 -73
38 -78 22 -96 -42 -46 -44 -76 -45 -537 l0 -443 -35 -46 c-53 -69 -84 -127
-113 -207 -24 -69 -26 -85 -31 -341 l-6 -268 -51 -19 c-74 -28 -137 -88 -176
-167 -32 -65 -33 -69 -33 -202 0 -125 2 -139 26 -191 63 -134 188 -209 346
-209 l33 0 0 -152 c0 -148 1 -155 29 -214 46 -97 109 -130 159 -84 30 29 28
73 -6 117 -26 35 -27 41 -30 185 l-3 148 360 0 361 0 0 -132 c0 -151 -11 -187
-69 -225 -32 -22 -44 -23 -193 -23 -155 0 -159 -1 -183 -25 -32 -31 -32 -69 0
-101 l26 -26 177 4 c201 3 238 14 305 83 70 72 81 110 85 288 l4 157 1088 0
1088 0 4 -157 c3 -135 6 -165 24 -203 28 -59 86 -117 143 -144 44 -20 62 -21
346 -21 l300 0 53 30 c59 32 91 66 125 129 19 36 22 59 25 204 l4 162 32 0
c157 0 282 76 345 209 24 52 26 66 26 191 0 133 -1 137 -33 202 -39 79 -102
139 -176 167 l-51 19 -6 263 c-6 286 -12 320 -68 434 -17 33 -49 84 -71 113
l-40 52 0 443 c-1 461 -3 491 -45 537 -16 18 -15 23 22 96 37 76 38 81 38 183
0 94 -3 112 -27 163 -50 107 -169 204 -271 223 -36 7 -38 10 -33 34 14 64 18
281 7 361 -31 207 -124 406 -259 552 -62 67 -101 76 -140 35 -35 -37 -28 -69
28 -133 100 -114 160 -225 202 -371 19 -66 23 -102 23 -238 -1 -205 -9 -236
-70 -260 -151 -57 -256 -230 -242 -399 5 -55 14 -88 45 -147 l38 -76 -25 -38
-26 -38 -3 -354 -3 -353 -219 0 c-121 0 -220 2 -220 4 0 2 9 24 20 48 45 102
43 252 -5 356 -37 81 -132 170 -235 220 -164 81 -365 116 -670 116 -305 0
-506 -35 -670 -116 -103 -50 -198 -139 -235 -220 -48 -104 -50 -254 -5 -355
11 -25 20 -47 20 -49 0 -2 -99 -4 -220 -4 l-219 0 -3 353 -3 354 -26 38 -25
39 37 72 c61 118 63 234 5 360 -33 73 -118 155 -190 185 -69 28 -75 43 -83
219 -12 277 72 497 261 685 187 185 425 277 681 262 175 -11 347 -71 482 -170
96 -71 120 -81 193 -81 73 0 97 10 193 81 81 59 203 117 307 145 70 18 110 22
225 22 145 0 204 -11 344 -62 59 -22 92 -17 117 16 40 52 -5 106 -122 145
-335 110 -686 55 -969 -152 -40 -30 -80 -51 -95 -51 -15 0 -55 21 -95 51 -224
164 -512 237 -779 198z m-704 -1456 c134 -73 167 -245 72 -370 l-25 -33 -163
0 -162 0 -27 28 c-38 40 -57 93 -57 164 0 189 194 302 362 211z m3347 21 c104
-31 171 -122 171 -232 0 -71 -19 -124 -57 -164 l-27 -28 -162 0 -163 0 -25 33
c-93 121 -64 290 62 364 74 44 123 50 201 27z m-3292 -585 c15 -5 31 -16 35
-22 4 -7 8 -160 8 -342 l0 -330 -94 -2 c-107 -2 -193 -21 -283 -63 l-63 -29 0
370 c0 243 4 377 11 390 6 11 20 24 32 29 31 13 320 12 354 -1z m3424 -18 c18
-22 19 -44 19 -397 l0 -373 -62 29 c-91 42 -178 62 -284 63 l-94 1 0 331 c0
181 4 335 8 342 17 26 62 32 225 30 164 -2 169 -3 188 -26z m-1581 -96 c180
-27 297 -71 379 -141 112 -96 125 -280 28 -390 l-39 -44 -688 0 -688 0 -36 40
c-49 55 -67 103 -68 181 0 212 193 333 588 369 129 11 403 4 524 -15z m1389
-747 c139 -43 267 -145 329 -264 52 -101 62 -162 62 -411 l0 -223 -2100 0
-2100 0 0 228 c0 169 4 242 15 285 55 212 235 371 447 396 40 5 798 8 1683 7
1468 -2 1615 -3 1664 -18z m558 -1075 c72 -39 103 -105 103 -221 0 -135 -48
-217 -143 -240 -66 -17 -4388 -17 -4454 0 -57 14 -114 68 -131 124 -15 51 -16
166 -1 219 21 76 69 119 149 136 19 4 1025 6 2235 5 l2200 -1 42 -22z m-307
-761 c0 -156 -11 -192 -71 -224 -30 -16 -61 -18 -290 -18 -250 0 -257 1 -290
23 -58 38 -69 74 -69 225 l0 132 360 0 360 0 0 -138z"/>
<path d="M1856 4316 c-77 -29 -135 -111 -136 -192 0 -103 130 -115 146 -13 11
68 75 92 113 43 12 -15 21 -37 21 -49 0 -29 40 -65 74 -65 16 0 38 11 53 26
22 23 25 31 19 71 -19 138 -162 226 -290 179z"/>
<path d="M2491 4289 c-35 -10 -72 -26 -82 -35 -25 -23 -25 -78 1 -104 24 -24
55 -25 132 -4 32 9 61 14 64 12 3 -3 -7 -23 -21 -44 -23 -33 -26 -47 -23 -90
3 -30 13 -63 26 -81 12 -17 19 -33 16 -36 -3 -2 -39 4 -80 16 l-75 20 -27 -20
c-34 -26 -42 -83 -15 -110 25 -25 178 -66 217 -59 52 10 96 44 116 89 26 56
25 95 -3 148 l-24 44 21 28 c29 40 29 134 0 174 -55 74 -119 88 -243 52z"/>
<path d="M3143 4276 c-27 -23 -28 -28 -28 -116 0 -84 2 -93 24 -111 30 -25 76
-24 101 1 17 17 20 33 20 114 0 90 -1 96 -26 115 -35 27 -57 26 -91 -3z"/>
</g>
</svg>
