<?xml version="1.0" standalone="no"?>
<!DOCTYPE svg PUBLIC "-//W3C//DTD SVG 20010904//EN"
 "http://www.w3.org/TR/2001/REC-SVG-20010904/DTD/svg10.dtd">
<svg version="1.0" xmlns="http://www.w3.org/2000/svg"
 width="512.000000pt" height="512.000000pt" viewBox="0 0 512.000000 512.000000"
 preserveAspectRatio="xMidYMid meet">

<g transform="translate(0.000000,512.000000) scale(0.100000,-0.100000)"
fill="#000000" stroke="none">
<path d="M1340 4605 c-211 -29 -432 -103 -607 -204 -111 -64 -137 -96 -112
-140 8 -14 26 -32 40 -40 24 -13 30 -12 75 12 215 118 376 180 554 214 88 17
179 18 1270 18 l1175 0 112 -23 c218 -44 434 -136 606 -259 102 -73 267 -234
340 -333 70 -95 154 -243 168 -295 22 -82 -7 -179 -73 -242 -71 -68 125 -63
-2328 -63 -2453 0 -2257 -5 -2329 63 -67 64 -95 161 -71 247 23 84 155 286
274 418 41 46 56 70 56 92 0 40 -32 70 -73 70 -27 0 -43 -11 -89 -57 -92 -94
-194 -240 -259 -368 -51 -103 -61 -130 -66 -190 -13 -164 74 -316 223 -390 50
-24 74 -30 154 -33 l95 -4 0 -123 0 -122 -116 -6 c-169 -7 -242 -47 -295 -162
-26 -56 -33 -168 -14 -237 25 -88 125 -174 216 -184 l49 -6 -35 -71 -35 -71
-3 -232 c-4 -248 5 -318 48 -392 11 -18 20 -37 20 -41 0 -5 -24 -11 -54 -14
-30 -3 -68 -13 -85 -22 -53 -27 -111 -85 -139 -139 -24 -46 -27 -64 -30 -182
-4 -145 8 -217 54 -312 39 -79 131 -173 214 -216 132 -70 10 -66 2041 -66
l1836 0 27 21 c30 23 35 72 12 105 -14 19 -48 19 -1883 24 l-1868 5 -57 23
c-80 32 -150 99 -190 180 -31 63 -33 73 -36 192 -3 143 7 177 67 217 l34 23
2307 0 2307 0 34 -23 c60 -40 71 -74 67 -217 -3 -109 -7 -132 -30 -181 -69
-151 -191 -218 -394 -219 -74 0 -96 -4 -115 -18 -33 -27 -30 -78 5 -109 24
-21 37 -23 119 -23 173 1 295 43 398 138 67 62 111 126 141 208 19 51 22 80
22 219 1 155 0 162 -26 211 -28 54 -87 112 -139 139 -17 9 -55 19 -85 22 -30
3 -54 9 -54 14 0 4 9 23 20 41 43 74 52 144 48 392 l-3 232 -35 71 -35 71 49
6 c91 10 191 96 216 184 19 68 12 181 -14 237 -53 115 -125 155 -295 162
l-116 6 0 123 0 124 77 0 c45 0 97 7 125 16 170 58 284 230 270 408 -11 138
-166 396 -350 584 -270 276 -612 447 -994 497 -156 21 -2283 20 -2433 0z
m1145 -1630 l0 -125 -914 0 c-837 0 -916 1 -933 17 -15 13 -18 31 -18 102 0
47 4 91 8 97 22 33 45 33 952 34 l906 0 -1 -125z m1978 114 c34 -18 37 -28 37
-118 0 -135 112 -121 -935 -121 -687 0 -904 3 -913 12 -8 8 -12 47 -12 109 0
90 2 99 22 113 20 14 122 16 901 16 642 0 884 -3 900 -11z m378 -399 c58 -16
82 -51 87 -124 3 -45 0 -72 -12 -94 -34 -66 74 -62 -1538 -62 -929 0 -1479 -4
-1506 -10 -93 -22 -134 -51 -302 -216 -151 -147 -170 -162 -214 -172 -26 -5
-55 -8 -64 -7 -9 2 -30 7 -46 10 -20 4 -80 56 -186 159 -235 230 -248 236
-568 236 -236 0 -258 5 -288 62 -12 22 -15 49 -12 94 4 71 29 108 82 123 44
13 4521 14 4567 1z m-4107 -442 c32 -10 76 -46 202 -169 104 -102 178 -166
211 -183 63 -31 147 -46 213 -35 97 15 135 41 299 203 86 84 172 162 191 172
34 18 84 19 1353 22 866 1 1332 -1 1356 -8 58 -15 116 -63 142 -117 23 -46 24
-56 24 -283 0 -223 -1 -237 -22 -276 -27 -51 -80 -98 -130 -115 -31 -12 -378
-14 -2023 -14 l-1985 0 -40 22 c-47 25 -85 64 -111 113 -17 31 -19 60 -19 270
0 227 1 237 24 283 51 104 185 153 315 115z"/>
<path d="M1930 2028 c-16 -18 -20 -35 -20 -95 0 -65 3 -77 25 -98 13 -14 36
-25 50 -25 14 0 37 11 50 25 22 21 25 33 25 100 0 62 -4 79 -20 95 -27 27 -83
27 -110 -2z"/>
<path d="M3080 2030 c-16 -16 -20 -33 -20 -95 0 -67 3 -79 25 -100 13 -14 36
-25 50 -25 14 0 37 11 50 25 22 21 25 33 25 90 0 64 -11 102 -34 117 -22 15
-76 8 -96 -12z"/>
<path d="M2385 1950 c-55 -22 -65 -84 -20 -130 101 -106 291 -106 389 -1 46
49 37 110 -21 132 -26 10 -51 1 -102 -36 -52 -38 -112 -32 -166 15 -26 23 -55
30 -80 20z"/>
<path d="M1791 4194 c-18 -23 -21 -41 -21 -124 0 -83 3 -101 21 -124 27 -34
77 -36 107 -3 20 21 22 34 22 128 0 97 -2 107 -23 127 -33 31 -80 29 -106 -4z"/>
<path d="M3222 4197 c-20 -21 -22 -34 -22 -128 0 -97 2 -107 23 -127 33 -31
80 -29 106 4 18 23 21 41 21 124 0 83 -3 101 -21 124 -27 34 -77 36 -107 3z"/>
<path d="M1092 3837 c-20 -21 -22 -34 -22 -128 0 -92 3 -108 20 -127 30 -32
82 -30 109 4 18 23 21 41 21 124 0 83 -3 101 -21 124 -27 34 -77 36 -107 3z"/>
<path d="M2511 3841 c-25 -25 -35 -95 -28 -180 7 -74 28 -101 77 -101 49 0 70
27 77 101 12 131 -15 199 -77 199 -16 0 -39 -9 -49 -19z"/>
<path d="M3921 3834 c-18 -23 -21 -41 -21 -124 0 -83 3 -101 21 -124 27 -34
79 -36 109 -4 17 19 20 35 20 128 0 98 -2 108 -23 128 -33 31 -80 29 -106 -4z"/>
</g>
</svg>
