<?xml version="1.0" standalone="no"?>
<!DOCTYPE svg PUBLIC "-//W3C//DTD SVG 20010904//EN"
 "http://www.w3.org/TR/2001/REC-SVG-20010904/DTD/svg10.dtd">
<svg version="1.0" xmlns="http://www.w3.org/2000/svg"
 width="512.000000pt" height="512.000000pt" viewBox="0 0 512.000000 512.000000"
 preserveAspectRatio="xMidYMid meet">

<g transform="translate(0.000000,512.000000) scale(0.100000,-0.100000)"
fill="#000000" stroke="none">
<path d="M1905 5106 c-333 -48 -618 -191 -855 -426 -258 -258 -406 -590 -426
-961 -21 -375 149 -856 521 -1474 176 -294 399 -620 637 -933 60 -79 111 -149
114 -156 3 -7 -22 -21 -68 -35 -237 -77 -429 -215 -496 -358 -23 -49 -27 -71
-27 -143 0 -72 4 -93 27 -140 15 -31 44 -75 64 -99 44 -51 158 -139 191 -147
29 -8 71 18 83 52 15 38 -3 67 -72 117 -69 49 -110 96 -134 152 -61 147 101
316 406 423 147 51 128 56 218 -55 183 -226 319 -303 537 -303 219 0 353 76
537 303 90 111 71 106 218 55 255 -89 420 -230 420 -358 -1 -166 -281 -344
-660 -419 -190 -37 -281 -45 -515 -46 -245 0 -344 10 -535 52 -178 39 -193 40
-219 8 -33 -43 -27 -87 18 -109 86 -44 398 -94 641 -103 549 -19 1059 118
1289 345 96 95 126 160 126 272 0 72 -4 94 -27 143 -67 143 -259 281 -496 358
-39 12 -72 26 -72 30 0 4 32 48 70 98 175 226 577 799 593 845 2 6 40 -23 83
-64 91 -87 202 -163 259 -179 50 -14 99 -14 147 -1 95 27 308 206 380 320 60
94 81 166 76 262 -4 99 -30 162 -95 224 -106 103 -257 127 -391 63 -37 -18
-47 -19 -73 -9 -16 7 -28 18 -25 24 2 6 28 65 56 131 106 244 167 448 190 639
23 178 -3 416 -66 606 -57 172 -177 379 -295 509 -51 56 -89 66 -127 34 -35
-30 -37 -64 -5 -105 175 -225 235 -331 291 -508 37 -115 62 -277 62 -393 0
-182 -73 -465 -185 -718 -80 -181 -73 -171 -135 -184 -107 -21 -190 -89 -239
-195 -32 -69 -35 -178 -8 -257 l18 -52 -133 -203 c-215 -326 -420 -606 -694
-948 -142 -178 -200 -237 -261 -268 -172 -88 -386 -63 -520 61 -51 47 -263
309 -439 543 -647 861 -1028 1570 -1099 2048 -73 497 159 1002 590 1278 99 64
176 101 293 142 155 54 253 70 432 70 169 1 252 -12 416 -65 50 -16 100 -29
111 -29 10 0 57 13 104 28 152 52 248 67 424 67 240 -1 409 -43 622 -156 62
-32 122 -59 133 -59 29 0 70 44 70 76 0 39 -44 74 -172 136 -132 65 -231 100
-372 130 -83 18 -134 22 -281 22 -193 0 -306 -17 -460 -69 l-70 -23 -70 23
c-187 63 -462 89 -650 61z m2410 -2519 c11 -5 31 -18 44 -28 37 -29 94 -24
160 13 90 52 178 41 242 -29 40 -43 49 -66 49 -131 0 -113 -99 -251 -265 -368
-93 -65 -136 -67 -221 -9 -90 60 -214 190 -249 260 -69 140 -23 263 115 306
29 9 95 2 125 -14z"/>
<path d="M1901 4400 c-273 -72 -489 -288 -562 -565 -32 -119 -30 -287 5 -420
57 -222 209 -460 436 -685 181 -180 449 -383 596 -452 156 -73 363 -70 516 8
147 75 407 274 578 444 227 225 379 463 436 685 35 133 37 301 5 420 -74 279
-290 494 -566 565 -107 27 -273 27 -381 0 -94 -24 -186 -66 -266 -120 -32 -22
-65 -40 -73 -40 -9 0 -43 18 -76 41 -82 55 -169 95 -263 119 -106 27 -281 27
-385 0z m404 -160 c39 -14 111 -51 160 -85 89 -59 91 -60 160 -60 69 0 71 1
160 60 121 81 199 107 341 113 196 7 332 -45 469 -182 190 -190 239 -431 143
-704 -102 -293 -384 -610 -788 -885 -138 -94 -207 -120 -325 -120 -71 0 -104
6 -155 25 -124 46 -412 261 -595 443 -455 456 -538 923 -220 1241 86 86 175
139 285 169 86 23 276 15 365 -15z"/>
<path d="M1952 3670 c-20 -19 -22 -31 -22 -115 0 -89 1 -95 26 -114 15 -12 33
-21 40 -21 29 0 64 25 74 53 13 39 13 126 -1 166 -19 53 -77 68 -117 31z"/>
<path d="M3207 3678 c-24 -19 -37 -62 -37 -122 0 -69 15 -111 46 -125 35 -16
47 -14 78 10 25 19 26 25 26 114 0 84 -2 96 -22 115 -25 23 -66 26 -91 8z"/>
<path d="M2407 3552 c-29 -31 -22 -84 16 -119 109 -104 281 -109 392 -11 38
34 45 45 45 77 0 47 -24 71 -72 71 -24 0 -42 -8 -58 -25 -52 -55 -144 -57
-204 -5 -40 35 -93 40 -119 12z"/>
<path d="M393 1896 c-92 -30 -167 -98 -209 -189 -24 -53 -26 -68 -22 -152 3
-83 8 -101 43 -171 30 -63 59 -99 134 -175 98 -98 198 -173 261 -196 58 -21
148 -16 205 11 155 73 335 257 396 407 34 81 33 205 -3 280 -33 72 -94 134
-167 168 -48 22 -70 26 -146 26 -79 0 -98 -4 -142 -26 l-51 -27 -53 27 c-64
31 -178 39 -246 17z m215 -172 c77 -41 107 -41 170 1 103 68 233 32 283 -80
23 -49 23 -77 4 -141 -29 -98 -125 -211 -259 -305 -91 -65 -127 -66 -217 -8
-97 63 -213 184 -249 260 -47 100 -39 202 21 255 73 66 148 71 247 18z"/>
</g>
</svg>
