<?xml version="1.0" standalone="no"?>
<!DOCTYPE svg PUBLIC "-//W3C//DTD SVG 20010904//EN"
 "http://www.w3.org/TR/2001/REC-SVG-20010904/DTD/svg10.dtd">
<svg version="1.0" xmlns="http://www.w3.org/2000/svg"
 width="512.000000pt" height="512.000000pt" viewBox="0 0 512.000000 512.000000"
 preserveAspectRatio="xMidYMid meet">

<g transform="translate(0.000000,512.000000) scale(0.100000,-0.100000)"
fill="#000000" stroke="none">
<path d="M4015 5095 c-51 -50 -20 -145 47 -145 40 0 57 10 74 42 20 38 10 82
-23 108 -34 27 -69 25 -98 -5z"/>
<path d="M890 4880 c-59 -59 -10 -162 70 -145 91 20 75 165 -18 165 -19 0 -40
-8 -52 -20z"/>
<path d="M1772 4800 c-49 -20 -59 -115 -15 -147 20 -15 67 -17 93 -3 38 21 46
103 11 134 -22 20 -61 27 -89 16z"/>
<path d="M2850 4797 c-32 -16 -54 -61 -46 -93 23 -92 156 -82 156 12 0 46 -9
63 -41 79 -34 18 -37 18 -69 2z"/>
<path d="M3504 4370 c-54 -21 -70 -91 -31 -136 49 -57 137 -18 137 60 0 52
-59 95 -106 76z"/>
<path d="M1208 4341 c-26 -10 -65 -33 -87 -50 -83 -66 -85 -71 -332 -932 -216
-750 -231 -810 -232 -889 -1 -62 4 -99 18 -138 l19 -52 -242 -848 c-146 -511
-242 -864 -242 -890 0 -49 22 -107 52 -139 l21 -22 -22 -50 c-12 -28 -27 -77
-34 -108 -13 -56 -15 -58 -52 -64 -41 -7 -75 -38 -75 -70 0 -31 21 -66 47 -78
34 -16 2752 -16 2786 0 49 22 61 86 22 124 l-24 25 -1276 0 -1277 0 7 32 c37
170 201 313 392 342 97 15 108 21 123 56 24 59 -18 110 -89 110 -124 -1 -285
-62 -379 -145 -44 -40 -53 -44 -59 -29 -5 13 286 1059 434 1557 l14 48 27 -20
c15 -11 57 -29 92 -41 119 -40 294 -15 409 59 148 95 239 248 249 419 4 79 6
82 31 88 63 14 122 37 175 69 38 23 58 30 61 22 8 -21 555 -1965 555 -1970 0
-9 -93 -36 -160 -47 -39 -6 -294 -10 -633 -10 l-568 0 -24 -25 c-33 -32 -33
-78 0 -111 l25 -25 623 3 622 3 86 27 c169 53 270 110 407 231 40 36 104 81
142 101 120 63 146 66 702 66 348 0 505 3 522 11 36 17 52 61 36 99 -18 44
-37 50 -143 50 l-95 0 -37 41 c-44 49 -80 124 -96 198 -16 79 -7 224 19 291
32 81 105 166 182 210 89 52 110 73 110 111 0 23 -8 39 -31 58 -99 84 -121
109 -146 160 -25 49 -28 67 -28 151 0 112 21 166 95 240 66 67 128 94 225 98
103 5 178 -22 248 -87 162 -150 147 -397 -31 -532 -62 -47 -76 -75 -60 -119 8
-23 25 -38 71 -61 178 -90 268 -275 238 -489 -12 -91 -64 -199 -119 -254 l-40
-38 -51 11 c-29 6 -76 11 -105 11 -43 0 -57 -4 -76 -25 -54 -57 -11 -135 74
-135 70 0 195 -37 267 -80 36 -21 92 -67 125 -102 119 -128 154 -236 154 -475
l0 -153 -898 0 -899 0 -23 -25 c-32 -34 -30 -83 5 -112 l26 -23 994 0 c707 0
1001 3 1018 11 26 12 47 47 47 80 0 31 -44 69 -80 69 l-30 0 0 159 c0 233 -28
347 -121 485 -54 81 -145 171 -214 211 l-44 26 49 72 c94 140 128 311 97 492
-23 127 -70 218 -164 314 -47 48 -72 80 -66 87 94 122 126 208 127 339 1 153
-40 252 -150 363 -197 198 -512 196 -710 -5 -98 -100 -144 -212 -145 -349 0
-124 36 -230 112 -323 l28 -34 -72 -71 c-124 -123 -177 -257 -177 -449 0 -123
17 -202 61 -289 l29 -58 -100 0 -99 0 -16 53 c-208 716 -261 916 -250 938 22
42 37 128 31 167 -13 69 -228 817 -246 852 -26 50 -87 105 -145 131 -127 57
-290 5 -365 -116 -11 -18 -59 -167 -106 -332 -95 -327 -102 -376 -66 -469 l19
-50 -60 -210 c-32 -115 -62 -212 -66 -216 -3 -4 -71 222 -150 502 l-143 508
18 54 c13 37 19 79 18 138 -1 78 -12 125 -143 580 -78 272 -153 513 -166 535
-32 56 -86 107 -142 136 -65 33 -196 38 -265 10z m201 -161 c22 -11 48 -34 59
-52 11 -18 82 -249 157 -513 146 -509 155 -558 123 -635 -43 -103 -151 -172
-297 -190 -97 -13 -104 -23 -111 -173 -5 -109 -9 -130 -36 -187 -39 -83 -101
-145 -184 -184 -56 -26 -77 -31 -145 -31 -93 0 -140 20 -197 83 -43 47 -62 99
-62 167 0 54 431 1578 465 1647 17 34 54 68 89 81 33 12 103 6 139 -13z m1393
-1088 c24 -24 45 -85 143 -428 98 -346 112 -406 105 -438 -12 -52 -45 -84
-107 -102 -111 -32 -213 19 -273 137 -25 49 -55 69 -103 69 -77 0 -137 58
-137 133 0 34 119 474 155 573 38 101 145 129 217 56z m-296 -919 c22 -4 36
-15 49 -40 11 -19 40 -53 65 -75 114 -101 242 -127 397 -82 18 5 23 1 31 -28
5 -18 60 -207 121 -420 61 -213 111 -390 111 -393 0 -3 -58 -5 -129 -5 -244 0
-397 -56 -560 -205 -80 -73 -120 -100 -126 -83 -2 7 -49 172 -103 365 l-99
353 90 315 c76 265 93 315 106 310 9 -4 30 -9 47 -12z"/>
<path d="M1327 3160 c-30 -24 -40 -60 -27 -96 34 -88 152 -63 152 32 0 70 -71
106 -125 64z"/>
<path d="M2635 1768 c-32 -17 -45 -39 -45 -78 0 -102 140 -109 157 -8 5 32 1
41 -25 68 -32 32 -54 36 -87 18z"/>
<path d="M4465 4138 c-75 -43 -49 -158 35 -158 82 0 112 118 39 155 -33 18
-47 18 -74 3z"/>
<path d="M25 4025 c-63 -62 5 -168 85 -135 36 15 50 37 50 78 0 74 -84 109
-135 57z"/>
<path d="M2298 4040 c-24 -15 -41 -72 -29 -103 12 -31 48 -57 78 -57 38 0 75
41 75 84 0 67 -67 108 -124 76z"/>
<path d="M457 3372 c-61 -67 4 -175 85 -141 83 34 56 159 -34 159 -21 0 -41
-7 -51 -18z"/>
<path d="M4982 3367 c-25 -26 -29 -82 -8 -109 19 -26 62 -39 90 -28 85 32 66
160 -23 160 -26 0 -44 -7 -59 -23z"/>
<path d="M3475 3165 c-52 -51 -16 -145 55 -145 44 0 80 39 80 85 0 46 -36 85
-80 85 -19 0 -40 -9 -55 -25z"/>
<path d="M4033 2470 c-28 -11 -43 -40 -43 -83 0 -82 108 -108 146 -35 20 38
10 82 -23 108 -28 22 -45 24 -80 10z"/>
<path d="M4245 2455 c-52 -51 -20 -145 49 -145 41 0 63 16 75 53 28 85 -64
153 -124 92z"/>
<path d="M161 2429 c-34 -14 -50 -39 -50 -79 0 -41 16 -65 52 -79 77 -29 140
71 85 133 -28 30 -55 38 -87 25z"/>
<path d="M4894 2318 c-47 -22 -57 -95 -19 -133 50 -51 135 -18 135 52 0 45 -9
62 -41 78 -32 17 -46 18 -75 3z"/>
<path d="M1665 1768 c-32 -17 -45 -39 -45 -78 0 -69 77 -105 131 -61 35 28 33
95 -4 127 -31 26 -51 29 -82 12z"/>
<path d="M897 1236 c-27 -21 -40 -68 -27 -101 21 -56 76 -72 124 -34 21 16 26
29 26 64 0 35 -5 48 -26 64 -30 24 -71 27 -97 7z"/>
</g>
</svg>
